<mxfile host="Electron" agent="Mozilla/5.0 (X11; Linux x86_64) AppleWebKit/537.36 (KHTML, like Gecko) draw.io/24.7.17 Chrome/128.0.6613.36 Electron/32.0.1 Safari/537.36" version="24.7.17">
  <diagram name="Page-1" id="dXGvEH7QJWC-4CexFVb9">
    <mxGraphModel dx="3736" dy="1711" grid="1" gridSize="10" guides="1" tooltips="1" connect="1" arrows="1" fold="1" page="1" pageScale="1" pageWidth="850" pageHeight="1100" math="1" shadow="0">
      <root>
        <mxCell id="0" />
        <mxCell id="1" parent="0" />
        <mxCell id="qut-PCuaeT9HsMVFIy28-422" value="" style="endArrow=none;html=1;rounded=0;strokeWidth=3;dashed=1;strokeColor=#E6D0DE;" edge="1" parent="1">
          <mxGeometry width="50" height="50" relative="1" as="geometry">
            <mxPoint x="1558.91" y="950" as="sourcePoint" />
            <mxPoint x="1558.91" y="850" as="targetPoint" />
          </mxGeometry>
        </mxCell>
        <mxCell id="qut-PCuaeT9HsMVFIy28-423" value="" style="endArrow=none;html=1;rounded=0;strokeWidth=3;dashed=1;strokeColor=#E6D0DE;" edge="1" parent="1">
          <mxGeometry width="50" height="50" relative="1" as="geometry">
            <mxPoint x="1639.91" y="950" as="sourcePoint" />
            <mxPoint x="1639.91" y="850" as="targetPoint" />
          </mxGeometry>
        </mxCell>
        <mxCell id="qut-PCuaeT9HsMVFIy28-417" value="" style="endArrow=none;html=1;rounded=0;strokeWidth=3;dashed=1;strokeColor=#E6D0DE;" edge="1" parent="1">
          <mxGeometry width="50" height="50" relative="1" as="geometry">
            <mxPoint x="359" y="970" as="sourcePoint" />
            <mxPoint x="359" y="870" as="targetPoint" />
          </mxGeometry>
        </mxCell>
        <mxCell id="qut-PCuaeT9HsMVFIy28-418" value="" style="endArrow=none;html=1;rounded=0;strokeWidth=3;dashed=1;strokeColor=#E6D0DE;" edge="1" parent="1">
          <mxGeometry width="50" height="50" relative="1" as="geometry">
            <mxPoint x="440" y="970" as="sourcePoint" />
            <mxPoint x="440" y="870" as="targetPoint" />
          </mxGeometry>
        </mxCell>
        <mxCell id="qut-PCuaeT9HsMVFIy28-42" value="" style="endArrow=none;html=1;rounded=0;strokeWidth=3;dashed=1;strokeColor=#E6D0DE;" edge="1" parent="1">
          <mxGeometry width="50" height="50" relative="1" as="geometry">
            <mxPoint x="240" y="560" as="sourcePoint" />
            <mxPoint x="240" y="77" as="targetPoint" />
          </mxGeometry>
        </mxCell>
        <mxCell id="qut-PCuaeT9HsMVFIy28-43" value="" style="endArrow=none;html=1;rounded=0;strokeWidth=3;dashed=1;strokeColor=#E6D0DE;" edge="1" parent="1">
          <mxGeometry width="50" height="50" relative="1" as="geometry">
            <mxPoint x="280" y="560" as="sourcePoint" />
            <mxPoint x="280" y="80" as="targetPoint" />
          </mxGeometry>
        </mxCell>
        <mxCell id="qut-PCuaeT9HsMVFIy28-84" value="" style="endArrow=none;html=1;rounded=0;strokeWidth=3;dashed=1;strokeColor=#E6D0DE;" edge="1" parent="1">
          <mxGeometry width="50" height="50" relative="1" as="geometry">
            <mxPoint x="360" y="560" as="sourcePoint" />
            <mxPoint x="359.5" y="80" as="targetPoint" />
          </mxGeometry>
        </mxCell>
        <mxCell id="qut-PCuaeT9HsMVFIy28-85" value="" style="endArrow=none;html=1;rounded=0;strokeWidth=3;dashed=1;strokeColor=#E6D0DE;" edge="1" parent="1">
          <mxGeometry width="50" height="50" relative="1" as="geometry">
            <mxPoint x="559" y="560" as="sourcePoint" />
            <mxPoint x="559" y="80" as="targetPoint" />
          </mxGeometry>
        </mxCell>
        <mxCell id="qut-PCuaeT9HsMVFIy28-40" value="&lt;font style=&quot;font-size: 28px;&quot;&gt;&lt;b&gt;$$m_t(t)$$&lt;/b&gt;&lt;/font&gt;" style="text;html=1;align=center;verticalAlign=middle;whiteSpace=wrap;rounded=0;" vertex="1" parent="1">
          <mxGeometry x="-230" y="80" width="60" height="30" as="geometry" />
        </mxCell>
        <mxCell id="qut-PCuaeT9HsMVFIy28-41" value="&lt;font style=&quot;font-size: 28px;&quot;&gt;&lt;b&gt;$$m_t(t-\tau)$$&lt;/b&gt;&lt;/font&gt;" style="text;html=1;align=center;verticalAlign=middle;whiteSpace=wrap;rounded=0;" vertex="1" parent="1">
          <mxGeometry x="-210" y="250" width="60" height="30" as="geometry" />
        </mxCell>
        <mxCell id="qut-PCuaeT9HsMVFIy28-44" value="&lt;font style=&quot;&quot; size=&quot;1&quot;&gt;&lt;b style=&quot;font-size: 24px;&quot;&gt;$$0$$&lt;/b&gt;&lt;/font&gt;" style="text;html=1;align=center;verticalAlign=middle;whiteSpace=wrap;rounded=0;fontColor=#A680B8;" vertex="1" parent="1">
          <mxGeometry x="220" y="207" width="60" height="30" as="geometry" />
        </mxCell>
        <mxCell id="qut-PCuaeT9HsMVFIy28-45" value="&lt;font style=&quot;&quot; size=&quot;1&quot;&gt;&lt;b style=&quot;font-size: 24px;&quot;&gt;$$\tau$$&lt;/b&gt;&lt;/font&gt;" style="text;html=1;align=center;verticalAlign=middle;whiteSpace=wrap;rounded=0;fontColor=#A680B8;" vertex="1" parent="1">
          <mxGeometry x="270" y="208" width="60" height="30" as="geometry" />
        </mxCell>
        <mxCell id="qut-PCuaeT9HsMVFIy28-82" value="&lt;font style=&quot;&quot; size=&quot;1&quot;&gt;&lt;b style=&quot;font-size: 24px;&quot;&gt;$$T$$&lt;/b&gt;&lt;/font&gt;" style="text;html=1;align=center;verticalAlign=middle;whiteSpace=wrap;rounded=0;fontColor=#A680B8;" vertex="1" parent="1">
          <mxGeometry x="548" y="206" width="60" height="30" as="geometry" />
        </mxCell>
        <mxCell id="qut-PCuaeT9HsMVFIy28-83" value="&lt;font style=&quot;&quot; size=&quot;1&quot;&gt;&lt;b style=&quot;font-size: 24px;&quot;&gt;$$mT$$&lt;/b&gt;&lt;/font&gt;" style="text;html=1;align=center;verticalAlign=middle;whiteSpace=wrap;rounded=0;fontColor=#A680B8;" vertex="1" parent="1">
          <mxGeometry x="359" y="209" width="60" height="30" as="geometry" />
        </mxCell>
        <mxCell id="qut-PCuaeT9HsMVFIy28-88" value="&lt;font style=&quot;&quot; size=&quot;1&quot;&gt;&lt;b style=&quot;font-size: 24px;&quot;&gt;$$0$$&lt;/b&gt;&lt;/font&gt;" style="text;html=1;align=center;verticalAlign=middle;whiteSpace=wrap;rounded=0;fontColor=#A680B8;" vertex="1" parent="1">
          <mxGeometry x="-150" y="178" width="60" height="30" as="geometry" />
        </mxCell>
        <mxCell id="qut-PCuaeT9HsMVFIy28-89" value="&lt;font style=&quot;&quot; size=&quot;1&quot;&gt;&lt;b style=&quot;font-size: 24px;&quot;&gt;$$1$$&lt;/b&gt;&lt;/font&gt;" style="text;html=1;align=center;verticalAlign=middle;whiteSpace=wrap;rounded=0;fontColor=#A680B8;" vertex="1" parent="1">
          <mxGeometry x="-150" y="110" width="60" height="30" as="geometry" />
        </mxCell>
        <mxCell id="qut-PCuaeT9HsMVFIy28-218" value="" style="group" vertex="1" connectable="0" parent="1">
          <mxGeometry x="-80" y="120" width="960" height="80" as="geometry" />
        </mxCell>
        <mxCell id="qut-PCuaeT9HsMVFIy28-13" value="" style="group;strokeWidth=5;" vertex="1" connectable="0" parent="qut-PCuaeT9HsMVFIy28-218">
          <mxGeometry x="320" width="320" height="80" as="geometry" />
        </mxCell>
        <mxCell id="qut-PCuaeT9HsMVFIy28-1" value="" style="endArrow=none;html=1;rounded=0;strokeWidth=5;" edge="1" parent="qut-PCuaeT9HsMVFIy28-13">
          <mxGeometry width="50" height="50" relative="1" as="geometry">
            <mxPoint y="80" as="sourcePoint" />
            <mxPoint as="targetPoint" />
          </mxGeometry>
        </mxCell>
        <mxCell id="qut-PCuaeT9HsMVFIy28-2" value="" style="endArrow=none;html=1;rounded=0;strokeWidth=5;" edge="1" parent="qut-PCuaeT9HsMVFIy28-13">
          <mxGeometry width="50" height="50" relative="1" as="geometry">
            <mxPoint x="120" as="sourcePoint" />
            <mxPoint as="targetPoint" />
          </mxGeometry>
        </mxCell>
        <mxCell id="qut-PCuaeT9HsMVFIy28-3" value="" style="endArrow=none;html=1;rounded=0;strokeWidth=5;" edge="1" parent="qut-PCuaeT9HsMVFIy28-13">
          <mxGeometry width="50" height="50" relative="1" as="geometry">
            <mxPoint x="120" y="80" as="sourcePoint" />
            <mxPoint x="120" as="targetPoint" />
          </mxGeometry>
        </mxCell>
        <mxCell id="qut-PCuaeT9HsMVFIy28-4" value="" style="endArrow=none;html=1;rounded=0;strokeWidth=5;" edge="1" parent="qut-PCuaeT9HsMVFIy28-13">
          <mxGeometry width="50" height="50" relative="1" as="geometry">
            <mxPoint x="320" y="80" as="sourcePoint" />
            <mxPoint x="120" y="80" as="targetPoint" />
          </mxGeometry>
        </mxCell>
        <mxCell id="qut-PCuaeT9HsMVFIy28-14" value="" style="group;strokeWidth=5;" vertex="1" connectable="0" parent="qut-PCuaeT9HsMVFIy28-218">
          <mxGeometry x="640" width="320" height="80" as="geometry" />
        </mxCell>
        <mxCell id="qut-PCuaeT9HsMVFIy28-15" value="" style="endArrow=none;html=1;rounded=0;strokeWidth=5;" edge="1" parent="qut-PCuaeT9HsMVFIy28-14">
          <mxGeometry width="50" height="50" relative="1" as="geometry">
            <mxPoint y="80" as="sourcePoint" />
            <mxPoint as="targetPoint" />
          </mxGeometry>
        </mxCell>
        <mxCell id="qut-PCuaeT9HsMVFIy28-16" value="" style="endArrow=none;html=1;rounded=0;strokeWidth=5;" edge="1" parent="qut-PCuaeT9HsMVFIy28-14">
          <mxGeometry width="50" height="50" relative="1" as="geometry">
            <mxPoint x="120" as="sourcePoint" />
            <mxPoint as="targetPoint" />
          </mxGeometry>
        </mxCell>
        <mxCell id="qut-PCuaeT9HsMVFIy28-17" value="" style="endArrow=none;html=1;rounded=0;strokeWidth=5;" edge="1" parent="qut-PCuaeT9HsMVFIy28-14">
          <mxGeometry width="50" height="50" relative="1" as="geometry">
            <mxPoint x="120" y="80" as="sourcePoint" />
            <mxPoint x="120" as="targetPoint" />
          </mxGeometry>
        </mxCell>
        <mxCell id="qut-PCuaeT9HsMVFIy28-18" value="" style="endArrow=none;html=1;rounded=0;strokeWidth=5;" edge="1" parent="qut-PCuaeT9HsMVFIy28-14">
          <mxGeometry width="50" height="50" relative="1" as="geometry">
            <mxPoint x="320" y="80" as="sourcePoint" />
            <mxPoint x="120" y="80" as="targetPoint" />
          </mxGeometry>
        </mxCell>
        <mxCell id="qut-PCuaeT9HsMVFIy28-19" value="" style="group;strokeWidth=5;" vertex="1" connectable="0" parent="qut-PCuaeT9HsMVFIy28-218">
          <mxGeometry width="320" height="80" as="geometry" />
        </mxCell>
        <mxCell id="qut-PCuaeT9HsMVFIy28-20" value="" style="endArrow=none;html=1;rounded=0;strokeWidth=5;" edge="1" parent="qut-PCuaeT9HsMVFIy28-19">
          <mxGeometry width="50" height="50" relative="1" as="geometry">
            <mxPoint y="80" as="sourcePoint" />
            <mxPoint as="targetPoint" />
          </mxGeometry>
        </mxCell>
        <mxCell id="qut-PCuaeT9HsMVFIy28-21" value="" style="endArrow=none;html=1;rounded=0;strokeWidth=5;" edge="1" parent="qut-PCuaeT9HsMVFIy28-19">
          <mxGeometry width="50" height="50" relative="1" as="geometry">
            <mxPoint x="120" as="sourcePoint" />
            <mxPoint as="targetPoint" />
          </mxGeometry>
        </mxCell>
        <mxCell id="qut-PCuaeT9HsMVFIy28-22" value="" style="endArrow=none;html=1;rounded=0;strokeWidth=5;" edge="1" parent="qut-PCuaeT9HsMVFIy28-19">
          <mxGeometry width="50" height="50" relative="1" as="geometry">
            <mxPoint x="120" y="80" as="sourcePoint" />
            <mxPoint x="120" as="targetPoint" />
          </mxGeometry>
        </mxCell>
        <mxCell id="qut-PCuaeT9HsMVFIy28-23" value="" style="endArrow=none;html=1;rounded=0;strokeWidth=5;" edge="1" parent="qut-PCuaeT9HsMVFIy28-19">
          <mxGeometry width="50" height="50" relative="1" as="geometry">
            <mxPoint x="320" y="80" as="sourcePoint" />
            <mxPoint x="120" y="80" as="targetPoint" />
          </mxGeometry>
        </mxCell>
        <mxCell id="qut-PCuaeT9HsMVFIy28-219" value="" style="group" vertex="1" connectable="0" parent="1">
          <mxGeometry x="-80" y="280" width="960" height="80" as="geometry" />
        </mxCell>
        <mxCell id="qut-PCuaeT9HsMVFIy28-24" value="" style="group;strokeWidth=5;" vertex="1" connectable="0" parent="qut-PCuaeT9HsMVFIy28-219">
          <mxGeometry x="360" width="320" height="80" as="geometry" />
        </mxCell>
        <mxCell id="qut-PCuaeT9HsMVFIy28-25" value="" style="endArrow=none;html=1;rounded=0;strokeWidth=5;" edge="1" parent="qut-PCuaeT9HsMVFIy28-24">
          <mxGeometry width="50" height="50" relative="1" as="geometry">
            <mxPoint y="80" as="sourcePoint" />
            <mxPoint as="targetPoint" />
          </mxGeometry>
        </mxCell>
        <mxCell id="qut-PCuaeT9HsMVFIy28-26" value="" style="endArrow=none;html=1;rounded=0;strokeWidth=5;" edge="1" parent="qut-PCuaeT9HsMVFIy28-24">
          <mxGeometry width="50" height="50" relative="1" as="geometry">
            <mxPoint x="120" as="sourcePoint" />
            <mxPoint as="targetPoint" />
          </mxGeometry>
        </mxCell>
        <mxCell id="qut-PCuaeT9HsMVFIy28-27" value="" style="endArrow=none;html=1;rounded=0;strokeWidth=5;" edge="1" parent="qut-PCuaeT9HsMVFIy28-24">
          <mxGeometry width="50" height="50" relative="1" as="geometry">
            <mxPoint x="120" y="80" as="sourcePoint" />
            <mxPoint x="120" as="targetPoint" />
          </mxGeometry>
        </mxCell>
        <mxCell id="qut-PCuaeT9HsMVFIy28-28" value="" style="endArrow=none;html=1;rounded=0;strokeWidth=5;" edge="1" parent="qut-PCuaeT9HsMVFIy28-24">
          <mxGeometry width="50" height="50" relative="1" as="geometry">
            <mxPoint x="320" y="80" as="sourcePoint" />
            <mxPoint x="120" y="80" as="targetPoint" />
          </mxGeometry>
        </mxCell>
        <mxCell id="qut-PCuaeT9HsMVFIy28-34" value="" style="group;strokeWidth=5;" vertex="1" connectable="0" parent="qut-PCuaeT9HsMVFIy28-219">
          <mxGeometry x="40" width="320" height="80" as="geometry" />
        </mxCell>
        <mxCell id="qut-PCuaeT9HsMVFIy28-35" value="" style="endArrow=none;html=1;rounded=0;strokeWidth=5;" edge="1" parent="qut-PCuaeT9HsMVFIy28-34">
          <mxGeometry width="50" height="50" relative="1" as="geometry">
            <mxPoint y="80" as="sourcePoint" />
            <mxPoint as="targetPoint" />
          </mxGeometry>
        </mxCell>
        <mxCell id="qut-PCuaeT9HsMVFIy28-36" value="" style="endArrow=none;html=1;rounded=0;strokeWidth=5;" edge="1" parent="qut-PCuaeT9HsMVFIy28-34">
          <mxGeometry width="50" height="50" relative="1" as="geometry">
            <mxPoint x="120" as="sourcePoint" />
            <mxPoint as="targetPoint" />
          </mxGeometry>
        </mxCell>
        <mxCell id="qut-PCuaeT9HsMVFIy28-37" value="" style="endArrow=none;html=1;rounded=0;strokeWidth=5;" edge="1" parent="qut-PCuaeT9HsMVFIy28-34">
          <mxGeometry width="50" height="50" relative="1" as="geometry">
            <mxPoint x="120" y="80" as="sourcePoint" />
            <mxPoint x="120" as="targetPoint" />
          </mxGeometry>
        </mxCell>
        <mxCell id="qut-PCuaeT9HsMVFIy28-38" value="" style="endArrow=none;html=1;rounded=0;strokeWidth=5;" edge="1" parent="qut-PCuaeT9HsMVFIy28-34">
          <mxGeometry width="50" height="50" relative="1" as="geometry">
            <mxPoint x="320" y="80" as="sourcePoint" />
            <mxPoint x="120" y="80" as="targetPoint" />
          </mxGeometry>
        </mxCell>
        <mxCell id="qut-PCuaeT9HsMVFIy28-30" value="" style="endArrow=none;html=1;rounded=0;strokeWidth=5;" edge="1" parent="qut-PCuaeT9HsMVFIy28-219">
          <mxGeometry width="50" height="50" relative="1" as="geometry">
            <mxPoint x="680" y="80" as="sourcePoint" />
            <mxPoint x="680" as="targetPoint" />
          </mxGeometry>
        </mxCell>
        <mxCell id="qut-PCuaeT9HsMVFIy28-31" value="" style="endArrow=none;html=1;rounded=0;strokeWidth=5;" edge="1" parent="qut-PCuaeT9HsMVFIy28-219">
          <mxGeometry width="50" height="50" relative="1" as="geometry">
            <mxPoint x="800" as="sourcePoint" />
            <mxPoint x="680" as="targetPoint" />
          </mxGeometry>
        </mxCell>
        <mxCell id="qut-PCuaeT9HsMVFIy28-32" value="" style="endArrow=none;html=1;rounded=0;strokeWidth=5;" edge="1" parent="qut-PCuaeT9HsMVFIy28-219">
          <mxGeometry width="50" height="50" relative="1" as="geometry">
            <mxPoint x="800" y="80" as="sourcePoint" />
            <mxPoint x="800" as="targetPoint" />
          </mxGeometry>
        </mxCell>
        <mxCell id="qut-PCuaeT9HsMVFIy28-33" value="" style="endArrow=none;html=1;rounded=0;strokeWidth=5;" edge="1" parent="qut-PCuaeT9HsMVFIy28-219">
          <mxGeometry width="50" height="50" relative="1" as="geometry">
            <mxPoint x="960" y="80" as="sourcePoint" />
            <mxPoint x="800" y="80" as="targetPoint" />
          </mxGeometry>
        </mxCell>
        <mxCell id="qut-PCuaeT9HsMVFIy28-39" value="" style="endArrow=none;html=1;rounded=0;strokeWidth=5;" edge="1" parent="qut-PCuaeT9HsMVFIy28-219">
          <mxGeometry width="50" height="50" relative="1" as="geometry">
            <mxPoint x="40" y="80" as="sourcePoint" />
            <mxPoint y="80" as="targetPoint" />
          </mxGeometry>
        </mxCell>
        <mxCell id="qut-PCuaeT9HsMVFIy28-230" value="" style="group" vertex="1" connectable="0" parent="1">
          <mxGeometry x="240" y="440" width="320" height="80" as="geometry" />
        </mxCell>
        <mxCell id="qut-PCuaeT9HsMVFIy28-221" value="" style="endArrow=none;html=1;rounded=0;strokeWidth=5;" edge="1" parent="qut-PCuaeT9HsMVFIy28-230">
          <mxGeometry width="50" height="50" relative="1" as="geometry">
            <mxPoint x="40" y="80" as="sourcePoint" />
            <mxPoint x="40" as="targetPoint" />
          </mxGeometry>
        </mxCell>
        <mxCell id="qut-PCuaeT9HsMVFIy28-222" value="" style="endArrow=none;html=1;rounded=0;strokeWidth=5;" edge="1" parent="qut-PCuaeT9HsMVFIy28-230">
          <mxGeometry width="50" height="50" relative="1" as="geometry">
            <mxPoint x="120" as="sourcePoint" />
            <mxPoint x="40" as="targetPoint" />
          </mxGeometry>
        </mxCell>
        <mxCell id="qut-PCuaeT9HsMVFIy28-223" value="" style="endArrow=none;html=1;rounded=0;strokeWidth=5;" edge="1" parent="qut-PCuaeT9HsMVFIy28-230">
          <mxGeometry width="50" height="50" relative="1" as="geometry">
            <mxPoint x="119" y="80" as="sourcePoint" />
            <mxPoint x="119" as="targetPoint" />
          </mxGeometry>
        </mxCell>
        <mxCell id="qut-PCuaeT9HsMVFIy28-224" value="" style="endArrow=none;html=1;rounded=0;strokeWidth=5;" edge="1" parent="qut-PCuaeT9HsMVFIy28-230">
          <mxGeometry width="50" height="50" relative="1" as="geometry">
            <mxPoint x="320" y="80" as="sourcePoint" />
            <mxPoint x="119" y="80" as="targetPoint" />
          </mxGeometry>
        </mxCell>
        <mxCell id="qut-PCuaeT9HsMVFIy28-229" value="" style="endArrow=none;html=1;rounded=0;strokeWidth=5;" edge="1" parent="qut-PCuaeT9HsMVFIy28-230">
          <mxGeometry width="50" height="50" relative="1" as="geometry">
            <mxPoint x="40" y="80" as="sourcePoint" />
            <mxPoint y="80" as="targetPoint" />
          </mxGeometry>
        </mxCell>
        <mxCell id="qut-PCuaeT9HsMVFIy28-231" value="" style="group" vertex="1" connectable="0" parent="1">
          <mxGeometry x="-80" y="440" width="320" height="80" as="geometry" />
        </mxCell>
        <mxCell id="qut-PCuaeT9HsMVFIy28-232" value="" style="endArrow=none;html=1;rounded=0;strokeWidth=5;" edge="1" parent="qut-PCuaeT9HsMVFIy28-231">
          <mxGeometry width="50" height="50" relative="1" as="geometry">
            <mxPoint x="40" y="80" as="sourcePoint" />
            <mxPoint x="40" as="targetPoint" />
          </mxGeometry>
        </mxCell>
        <mxCell id="qut-PCuaeT9HsMVFIy28-233" value="" style="endArrow=none;html=1;rounded=0;strokeWidth=5;" edge="1" parent="qut-PCuaeT9HsMVFIy28-231">
          <mxGeometry width="50" height="50" relative="1" as="geometry">
            <mxPoint x="120" as="sourcePoint" />
            <mxPoint x="40" as="targetPoint" />
          </mxGeometry>
        </mxCell>
        <mxCell id="qut-PCuaeT9HsMVFIy28-234" value="" style="endArrow=none;html=1;rounded=0;strokeWidth=5;" edge="1" parent="qut-PCuaeT9HsMVFIy28-231">
          <mxGeometry width="50" height="50" relative="1" as="geometry">
            <mxPoint x="119" y="80" as="sourcePoint" />
            <mxPoint x="119" as="targetPoint" />
          </mxGeometry>
        </mxCell>
        <mxCell id="qut-PCuaeT9HsMVFIy28-235" value="" style="endArrow=none;html=1;rounded=0;strokeWidth=5;" edge="1" parent="qut-PCuaeT9HsMVFIy28-231">
          <mxGeometry width="50" height="50" relative="1" as="geometry">
            <mxPoint x="320" y="80" as="sourcePoint" />
            <mxPoint x="119" y="80" as="targetPoint" />
          </mxGeometry>
        </mxCell>
        <mxCell id="qut-PCuaeT9HsMVFIy28-236" value="" style="endArrow=none;html=1;rounded=0;strokeWidth=5;" edge="1" parent="qut-PCuaeT9HsMVFIy28-231">
          <mxGeometry width="50" height="50" relative="1" as="geometry">
            <mxPoint x="40" y="80" as="sourcePoint" />
            <mxPoint y="80" as="targetPoint" />
          </mxGeometry>
        </mxCell>
        <mxCell id="qut-PCuaeT9HsMVFIy28-238" value="" style="group" vertex="1" connectable="0" parent="1">
          <mxGeometry x="560" y="440" width="320" height="80" as="geometry" />
        </mxCell>
        <mxCell id="qut-PCuaeT9HsMVFIy28-239" value="" style="endArrow=none;html=1;rounded=0;strokeWidth=5;" edge="1" parent="qut-PCuaeT9HsMVFIy28-238">
          <mxGeometry width="50" height="50" relative="1" as="geometry">
            <mxPoint x="40" y="80" as="sourcePoint" />
            <mxPoint x="40" as="targetPoint" />
          </mxGeometry>
        </mxCell>
        <mxCell id="qut-PCuaeT9HsMVFIy28-240" value="" style="endArrow=none;html=1;rounded=0;strokeWidth=5;" edge="1" parent="qut-PCuaeT9HsMVFIy28-238">
          <mxGeometry width="50" height="50" relative="1" as="geometry">
            <mxPoint x="120" as="sourcePoint" />
            <mxPoint x="40" as="targetPoint" />
          </mxGeometry>
        </mxCell>
        <mxCell id="qut-PCuaeT9HsMVFIy28-241" value="" style="endArrow=none;html=1;rounded=0;strokeWidth=5;" edge="1" parent="qut-PCuaeT9HsMVFIy28-238">
          <mxGeometry width="50" height="50" relative="1" as="geometry">
            <mxPoint x="119" y="80" as="sourcePoint" />
            <mxPoint x="119" as="targetPoint" />
          </mxGeometry>
        </mxCell>
        <mxCell id="qut-PCuaeT9HsMVFIy28-242" value="" style="endArrow=none;html=1;rounded=0;strokeWidth=5;" edge="1" parent="qut-PCuaeT9HsMVFIy28-238">
          <mxGeometry width="50" height="50" relative="1" as="geometry">
            <mxPoint x="320" y="80" as="sourcePoint" />
            <mxPoint x="119" y="80" as="targetPoint" />
          </mxGeometry>
        </mxCell>
        <mxCell id="qut-PCuaeT9HsMVFIy28-243" value="" style="endArrow=none;html=1;rounded=0;strokeWidth=5;" edge="1" parent="qut-PCuaeT9HsMVFIy28-238">
          <mxGeometry width="50" height="50" relative="1" as="geometry">
            <mxPoint x="40" y="80" as="sourcePoint" />
            <mxPoint y="80" as="targetPoint" />
          </mxGeometry>
        </mxCell>
        <mxCell id="qut-PCuaeT9HsMVFIy28-245" value="&lt;font style=&quot;font-size: 28px;&quot;&gt;&lt;b&gt;$$m_t(t)m_t(t-\tau)$$&lt;/b&gt;&lt;/font&gt;" style="text;html=1;align=center;verticalAlign=middle;whiteSpace=wrap;rounded=0;" vertex="1" parent="1">
          <mxGeometry x="-170" y="400" width="60" height="30" as="geometry" />
        </mxCell>
        <mxCell id="qut-PCuaeT9HsMVFIy28-247" value="" style="endArrow=none;html=1;rounded=0;strokeWidth=3;dashed=1;strokeColor=#E6D0DE;" edge="1" parent="1">
          <mxGeometry width="50" height="50" relative="1" as="geometry">
            <mxPoint x="1440" y="559" as="sourcePoint" />
            <mxPoint x="1440" y="76" as="targetPoint" />
          </mxGeometry>
        </mxCell>
        <mxCell id="qut-PCuaeT9HsMVFIy28-249" value="" style="endArrow=none;html=1;rounded=0;strokeWidth=3;dashed=1;strokeColor=#E6D0DE;" edge="1" parent="1">
          <mxGeometry width="50" height="50" relative="1" as="geometry">
            <mxPoint x="1640.5" y="560" as="sourcePoint" />
            <mxPoint x="1640" y="80" as="targetPoint" />
          </mxGeometry>
        </mxCell>
        <mxCell id="qut-PCuaeT9HsMVFIy28-250" value="" style="endArrow=none;html=1;rounded=0;strokeWidth=3;dashed=1;strokeColor=#E6D0DE;" edge="1" parent="1">
          <mxGeometry width="50" height="50" relative="1" as="geometry">
            <mxPoint x="1759" y="559" as="sourcePoint" />
            <mxPoint x="1759" y="79" as="targetPoint" />
          </mxGeometry>
        </mxCell>
        <mxCell id="qut-PCuaeT9HsMVFIy28-251" value="&lt;font style=&quot;font-size: 28px;&quot;&gt;&lt;b&gt;$$m_t(t)$$&lt;/b&gt;&lt;/font&gt;" style="text;html=1;align=center;verticalAlign=middle;whiteSpace=wrap;rounded=0;" vertex="1" parent="1">
          <mxGeometry x="970" y="79" width="60" height="30" as="geometry" />
        </mxCell>
        <mxCell id="qut-PCuaeT9HsMVFIy28-252" value="&lt;font style=&quot;font-size: 28px;&quot;&gt;&lt;b&gt;$$m_t(t-\tau)$$&lt;/b&gt;&lt;/font&gt;" style="text;html=1;align=center;verticalAlign=middle;whiteSpace=wrap;rounded=0;" vertex="1" parent="1">
          <mxGeometry x="990" y="249" width="60" height="30" as="geometry" />
        </mxCell>
        <mxCell id="qut-PCuaeT9HsMVFIy28-253" value="&lt;font style=&quot;&quot; size=&quot;1&quot;&gt;&lt;b style=&quot;font-size: 24px;&quot;&gt;$$0$$&lt;/b&gt;&lt;/font&gt;" style="text;html=1;align=center;verticalAlign=middle;whiteSpace=wrap;rounded=0;fontColor=#A680B8;" vertex="1" parent="1">
          <mxGeometry x="1420" y="206" width="60" height="30" as="geometry" />
        </mxCell>
        <mxCell id="qut-PCuaeT9HsMVFIy28-254" value="&lt;font style=&quot;&quot; size=&quot;1&quot;&gt;&lt;b style=&quot;font-size: 24px;&quot;&gt;$$\tau$$&lt;/b&gt;&lt;/font&gt;" style="text;html=1;align=center;verticalAlign=middle;whiteSpace=wrap;rounded=0;fontColor=#A680B8;" vertex="1" parent="1">
          <mxGeometry x="1550" y="200" width="60" height="30" as="geometry" />
        </mxCell>
        <mxCell id="qut-PCuaeT9HsMVFIy28-255" value="&lt;font style=&quot;&quot; size=&quot;1&quot;&gt;&lt;b style=&quot;font-size: 24px;&quot;&gt;$$T$$&lt;/b&gt;&lt;/font&gt;" style="text;html=1;align=center;verticalAlign=middle;whiteSpace=wrap;rounded=0;fontColor=#A680B8;" vertex="1" parent="1">
          <mxGeometry x="1748" y="205" width="60" height="30" as="geometry" />
        </mxCell>
        <mxCell id="qut-PCuaeT9HsMVFIy28-256" value="&lt;font style=&quot;&quot; size=&quot;1&quot;&gt;&lt;b style=&quot;font-size: 24px;&quot;&gt;$$mT$$&lt;/b&gt;&lt;/font&gt;" style="text;html=1;align=center;verticalAlign=middle;whiteSpace=wrap;rounded=0;fontColor=#A680B8;" vertex="1" parent="1">
          <mxGeometry x="1640" y="205" width="60" height="30" as="geometry" />
        </mxCell>
        <mxCell id="qut-PCuaeT9HsMVFIy28-257" value="&lt;font style=&quot;&quot; size=&quot;1&quot;&gt;&lt;b style=&quot;font-size: 24px;&quot;&gt;$$0$$&lt;/b&gt;&lt;/font&gt;" style="text;html=1;align=center;verticalAlign=middle;whiteSpace=wrap;rounded=0;fontColor=#A680B8;" vertex="1" parent="1">
          <mxGeometry x="1050" y="177" width="60" height="30" as="geometry" />
        </mxCell>
        <mxCell id="qut-PCuaeT9HsMVFIy28-258" value="&lt;font style=&quot;&quot; size=&quot;1&quot;&gt;&lt;b style=&quot;font-size: 24px;&quot;&gt;$$1$$&lt;/b&gt;&lt;/font&gt;" style="text;html=1;align=center;verticalAlign=middle;whiteSpace=wrap;rounded=0;fontColor=#A680B8;" vertex="1" parent="1">
          <mxGeometry x="1050" y="109" width="60" height="30" as="geometry" />
        </mxCell>
        <mxCell id="qut-PCuaeT9HsMVFIy28-309" value="&lt;font style=&quot;font-size: 28px;&quot;&gt;&lt;b&gt;$$m_t(t)m_t(t-\tau)$$&lt;/b&gt;&lt;/font&gt;" style="text;html=1;align=center;verticalAlign=middle;whiteSpace=wrap;rounded=0;" vertex="1" parent="1">
          <mxGeometry x="1030" y="399" width="60" height="30" as="geometry" />
        </mxCell>
        <mxCell id="qut-PCuaeT9HsMVFIy28-311" value="" style="group" vertex="1" connectable="0" parent="1">
          <mxGeometry x="1440" y="119" width="320" height="81" as="geometry" />
        </mxCell>
        <mxCell id="qut-PCuaeT9HsMVFIy28-261" value="" style="endArrow=none;html=1;rounded=0;strokeWidth=5;" edge="1" parent="qut-PCuaeT9HsMVFIy28-311">
          <mxGeometry width="50" height="50" relative="1" as="geometry">
            <mxPoint y="80" as="sourcePoint" />
            <mxPoint as="targetPoint" />
          </mxGeometry>
        </mxCell>
        <mxCell id="qut-PCuaeT9HsMVFIy28-262" value="" style="endArrow=none;html=1;rounded=0;strokeWidth=5;" edge="1" parent="qut-PCuaeT9HsMVFIy28-311">
          <mxGeometry width="50" height="50" relative="1" as="geometry">
            <mxPoint x="200" as="sourcePoint" />
            <mxPoint as="targetPoint" />
          </mxGeometry>
        </mxCell>
        <mxCell id="qut-PCuaeT9HsMVFIy28-263" value="" style="endArrow=none;html=1;rounded=0;strokeWidth=5;" edge="1" parent="qut-PCuaeT9HsMVFIy28-311">
          <mxGeometry width="50" height="50" relative="1" as="geometry">
            <mxPoint x="200" y="81" as="sourcePoint" />
            <mxPoint x="200" y="1" as="targetPoint" />
          </mxGeometry>
        </mxCell>
        <mxCell id="qut-PCuaeT9HsMVFIy28-310" value="" style="endArrow=none;html=1;rounded=0;strokeWidth=5;" edge="1" parent="qut-PCuaeT9HsMVFIy28-311">
          <mxGeometry width="50" height="50" relative="1" as="geometry">
            <mxPoint x="320" y="81" as="sourcePoint" />
            <mxPoint x="200" y="81" as="targetPoint" />
          </mxGeometry>
        </mxCell>
        <mxCell id="qut-PCuaeT9HsMVFIy28-248" value="" style="endArrow=none;html=1;rounded=0;strokeWidth=3;dashed=1;strokeColor=#E6D0DE;" edge="1" parent="qut-PCuaeT9HsMVFIy28-311">
          <mxGeometry width="50" height="50" relative="1" as="geometry">
            <mxPoint x="159.5" y="440" as="sourcePoint" />
            <mxPoint x="159.5" y="-40" as="targetPoint" />
          </mxGeometry>
        </mxCell>
        <mxCell id="qut-PCuaeT9HsMVFIy28-312" value="" style="group" vertex="1" connectable="0" parent="1">
          <mxGeometry x="1760" y="120" width="320" height="81" as="geometry" />
        </mxCell>
        <mxCell id="qut-PCuaeT9HsMVFIy28-313" value="" style="endArrow=none;html=1;rounded=0;strokeWidth=5;" edge="1" parent="qut-PCuaeT9HsMVFIy28-312">
          <mxGeometry width="50" height="50" relative="1" as="geometry">
            <mxPoint y="80" as="sourcePoint" />
            <mxPoint as="targetPoint" />
          </mxGeometry>
        </mxCell>
        <mxCell id="qut-PCuaeT9HsMVFIy28-314" value="" style="endArrow=none;html=1;rounded=0;strokeWidth=5;" edge="1" parent="qut-PCuaeT9HsMVFIy28-312">
          <mxGeometry width="50" height="50" relative="1" as="geometry">
            <mxPoint x="200" as="sourcePoint" />
            <mxPoint as="targetPoint" />
          </mxGeometry>
        </mxCell>
        <mxCell id="qut-PCuaeT9HsMVFIy28-315" value="" style="endArrow=none;html=1;rounded=0;strokeWidth=5;" edge="1" parent="qut-PCuaeT9HsMVFIy28-312">
          <mxGeometry width="50" height="50" relative="1" as="geometry">
            <mxPoint x="200" y="81" as="sourcePoint" />
            <mxPoint x="200" y="1" as="targetPoint" />
          </mxGeometry>
        </mxCell>
        <mxCell id="qut-PCuaeT9HsMVFIy28-316" value="" style="endArrow=none;html=1;rounded=0;strokeWidth=5;" edge="1" parent="qut-PCuaeT9HsMVFIy28-312">
          <mxGeometry width="50" height="50" relative="1" as="geometry">
            <mxPoint x="320" y="81" as="sourcePoint" />
            <mxPoint x="200" y="81" as="targetPoint" />
          </mxGeometry>
        </mxCell>
        <mxCell id="qut-PCuaeT9HsMVFIy28-317" value="" style="group" vertex="1" connectable="0" parent="1">
          <mxGeometry x="1120" y="120" width="320" height="81" as="geometry" />
        </mxCell>
        <mxCell id="qut-PCuaeT9HsMVFIy28-318" value="" style="endArrow=none;html=1;rounded=0;strokeWidth=5;" edge="1" parent="qut-PCuaeT9HsMVFIy28-317">
          <mxGeometry width="50" height="50" relative="1" as="geometry">
            <mxPoint y="80" as="sourcePoint" />
            <mxPoint as="targetPoint" />
          </mxGeometry>
        </mxCell>
        <mxCell id="qut-PCuaeT9HsMVFIy28-319" value="" style="endArrow=none;html=1;rounded=0;strokeWidth=5;" edge="1" parent="qut-PCuaeT9HsMVFIy28-317">
          <mxGeometry width="50" height="50" relative="1" as="geometry">
            <mxPoint x="200" as="sourcePoint" />
            <mxPoint as="targetPoint" />
          </mxGeometry>
        </mxCell>
        <mxCell id="qut-PCuaeT9HsMVFIy28-320" value="" style="endArrow=none;html=1;rounded=0;strokeWidth=5;" edge="1" parent="qut-PCuaeT9HsMVFIy28-317">
          <mxGeometry width="50" height="50" relative="1" as="geometry">
            <mxPoint x="200" y="81" as="sourcePoint" />
            <mxPoint x="200" y="1" as="targetPoint" />
          </mxGeometry>
        </mxCell>
        <mxCell id="qut-PCuaeT9HsMVFIy28-321" value="" style="endArrow=none;html=1;rounded=0;strokeWidth=5;" edge="1" parent="qut-PCuaeT9HsMVFIy28-317">
          <mxGeometry width="50" height="50" relative="1" as="geometry">
            <mxPoint x="320" y="81" as="sourcePoint" />
            <mxPoint x="200" y="81" as="targetPoint" />
          </mxGeometry>
        </mxCell>
        <mxCell id="qut-PCuaeT9HsMVFIy28-322" value="" style="group" vertex="1" connectable="0" parent="1">
          <mxGeometry x="1600" y="280" width="320" height="81" as="geometry" />
        </mxCell>
        <mxCell id="qut-PCuaeT9HsMVFIy28-323" value="" style="endArrow=none;html=1;rounded=0;strokeWidth=5;" edge="1" parent="qut-PCuaeT9HsMVFIy28-322">
          <mxGeometry width="50" height="50" relative="1" as="geometry">
            <mxPoint y="80" as="sourcePoint" />
            <mxPoint as="targetPoint" />
          </mxGeometry>
        </mxCell>
        <mxCell id="qut-PCuaeT9HsMVFIy28-324" value="" style="endArrow=none;html=1;rounded=0;strokeWidth=5;" edge="1" parent="qut-PCuaeT9HsMVFIy28-322">
          <mxGeometry width="50" height="50" relative="1" as="geometry">
            <mxPoint x="200" as="sourcePoint" />
            <mxPoint as="targetPoint" />
          </mxGeometry>
        </mxCell>
        <mxCell id="qut-PCuaeT9HsMVFIy28-325" value="" style="endArrow=none;html=1;rounded=0;strokeWidth=5;" edge="1" parent="qut-PCuaeT9HsMVFIy28-322">
          <mxGeometry width="50" height="50" relative="1" as="geometry">
            <mxPoint x="200" y="81" as="sourcePoint" />
            <mxPoint x="200" y="1" as="targetPoint" />
          </mxGeometry>
        </mxCell>
        <mxCell id="qut-PCuaeT9HsMVFIy28-326" value="" style="endArrow=none;html=1;rounded=0;strokeWidth=5;" edge="1" parent="qut-PCuaeT9HsMVFIy28-322">
          <mxGeometry width="50" height="50" relative="1" as="geometry">
            <mxPoint x="320" y="81" as="sourcePoint" />
            <mxPoint x="200" y="81" as="targetPoint" />
          </mxGeometry>
        </mxCell>
        <mxCell id="qut-PCuaeT9HsMVFIy28-332" value="" style="group" vertex="1" connectable="0" parent="1">
          <mxGeometry x="1280" y="281" width="320" height="81" as="geometry" />
        </mxCell>
        <mxCell id="qut-PCuaeT9HsMVFIy28-333" value="" style="endArrow=none;html=1;rounded=0;strokeWidth=5;" edge="1" parent="qut-PCuaeT9HsMVFIy28-332">
          <mxGeometry width="50" height="50" relative="1" as="geometry">
            <mxPoint y="80" as="sourcePoint" />
            <mxPoint as="targetPoint" />
          </mxGeometry>
        </mxCell>
        <mxCell id="qut-PCuaeT9HsMVFIy28-334" value="" style="endArrow=none;html=1;rounded=0;strokeWidth=5;" edge="1" parent="qut-PCuaeT9HsMVFIy28-332">
          <mxGeometry width="50" height="50" relative="1" as="geometry">
            <mxPoint x="200" as="sourcePoint" />
            <mxPoint as="targetPoint" />
          </mxGeometry>
        </mxCell>
        <mxCell id="qut-PCuaeT9HsMVFIy28-335" value="" style="endArrow=none;html=1;rounded=0;strokeWidth=5;" edge="1" parent="qut-PCuaeT9HsMVFIy28-332">
          <mxGeometry width="50" height="50" relative="1" as="geometry">
            <mxPoint x="200" y="81" as="sourcePoint" />
            <mxPoint x="200" y="1" as="targetPoint" />
          </mxGeometry>
        </mxCell>
        <mxCell id="qut-PCuaeT9HsMVFIy28-336" value="" style="endArrow=none;html=1;rounded=0;strokeWidth=5;" edge="1" parent="qut-PCuaeT9HsMVFIy28-332">
          <mxGeometry width="50" height="50" relative="1" as="geometry">
            <mxPoint x="320" y="81" as="sourcePoint" />
            <mxPoint x="200" y="81" as="targetPoint" />
          </mxGeometry>
        </mxCell>
        <mxCell id="qut-PCuaeT9HsMVFIy28-339" value="" style="endArrow=none;html=1;rounded=0;strokeWidth=5;" edge="1" parent="1">
          <mxGeometry width="50" height="50" relative="1" as="geometry">
            <mxPoint x="1160" y="280" as="sourcePoint" />
            <mxPoint x="1120" y="280" as="targetPoint" />
          </mxGeometry>
        </mxCell>
        <mxCell id="qut-PCuaeT9HsMVFIy28-340" value="" style="endArrow=none;html=1;rounded=0;strokeWidth=5;" edge="1" parent="1">
          <mxGeometry width="50" height="50" relative="1" as="geometry">
            <mxPoint x="1160" y="361" as="sourcePoint" />
            <mxPoint x="1160" y="281" as="targetPoint" />
          </mxGeometry>
        </mxCell>
        <mxCell id="qut-PCuaeT9HsMVFIy28-341" value="" style="endArrow=none;html=1;rounded=0;strokeWidth=5;" edge="1" parent="1">
          <mxGeometry width="50" height="50" relative="1" as="geometry">
            <mxPoint x="1280" y="361" as="sourcePoint" />
            <mxPoint x="1160" y="361" as="targetPoint" />
          </mxGeometry>
        </mxCell>
        <mxCell id="qut-PCuaeT9HsMVFIy28-328" value="" style="endArrow=none;html=1;rounded=0;strokeWidth=5;" edge="1" parent="1">
          <mxGeometry width="50" height="50" relative="1" as="geometry">
            <mxPoint x="1920" y="361" as="sourcePoint" />
            <mxPoint x="1920" y="281" as="targetPoint" />
          </mxGeometry>
        </mxCell>
        <mxCell id="qut-PCuaeT9HsMVFIy28-329" value="" style="endArrow=none;html=1;rounded=0;strokeWidth=5;" edge="1" parent="1">
          <mxGeometry width="50" height="50" relative="1" as="geometry">
            <mxPoint x="2080" y="281" as="sourcePoint" />
            <mxPoint x="1920" y="281" as="targetPoint" />
          </mxGeometry>
        </mxCell>
        <mxCell id="qut-PCuaeT9HsMVFIy28-346" value="" style="group" vertex="1" connectable="0" parent="1">
          <mxGeometry x="1439" y="440" width="321" height="80" as="geometry" />
        </mxCell>
        <mxCell id="qut-PCuaeT9HsMVFIy28-292" value="" style="endArrow=none;html=1;rounded=0;strokeWidth=5;" edge="1" parent="qut-PCuaeT9HsMVFIy28-346">
          <mxGeometry width="50" height="50" relative="1" as="geometry">
            <mxPoint y="80" as="sourcePoint" />
            <mxPoint as="targetPoint" />
          </mxGeometry>
        </mxCell>
        <mxCell id="qut-PCuaeT9HsMVFIy28-293" value="" style="endArrow=none;html=1;rounded=0;strokeWidth=5;" edge="1" parent="qut-PCuaeT9HsMVFIy28-346">
          <mxGeometry width="50" height="50" relative="1" as="geometry">
            <mxPoint x="41" as="sourcePoint" />
            <mxPoint x="1" as="targetPoint" />
          </mxGeometry>
        </mxCell>
        <mxCell id="qut-PCuaeT9HsMVFIy28-294" value="" style="endArrow=none;html=1;rounded=0;strokeWidth=5;" edge="1" parent="qut-PCuaeT9HsMVFIy28-346">
          <mxGeometry width="50" height="50" relative="1" as="geometry">
            <mxPoint x="41" y="80" as="sourcePoint" />
            <mxPoint x="41" as="targetPoint" />
          </mxGeometry>
        </mxCell>
        <mxCell id="qut-PCuaeT9HsMVFIy28-295" value="" style="endArrow=none;html=1;rounded=0;strokeWidth=5;" edge="1" parent="qut-PCuaeT9HsMVFIy28-346">
          <mxGeometry width="50" height="50" relative="1" as="geometry">
            <mxPoint x="161" y="80" as="sourcePoint" />
            <mxPoint x="40.5" y="79" as="targetPoint" />
          </mxGeometry>
        </mxCell>
        <mxCell id="qut-PCuaeT9HsMVFIy28-342" value="" style="endArrow=none;html=1;rounded=0;strokeWidth=5;" edge="1" parent="qut-PCuaeT9HsMVFIy28-346">
          <mxGeometry width="50" height="50" relative="1" as="geometry">
            <mxPoint x="161" y="80" as="sourcePoint" />
            <mxPoint x="161" as="targetPoint" />
          </mxGeometry>
        </mxCell>
        <mxCell id="qut-PCuaeT9HsMVFIy28-343" value="" style="endArrow=none;html=1;rounded=0;strokeWidth=5;" edge="1" parent="qut-PCuaeT9HsMVFIy28-346">
          <mxGeometry width="50" height="50" relative="1" as="geometry">
            <mxPoint x="202" as="sourcePoint" />
            <mxPoint x="162" as="targetPoint" />
          </mxGeometry>
        </mxCell>
        <mxCell id="qut-PCuaeT9HsMVFIy28-344" value="" style="endArrow=none;html=1;rounded=0;strokeWidth=5;" edge="1" parent="qut-PCuaeT9HsMVFIy28-346">
          <mxGeometry width="50" height="50" relative="1" as="geometry">
            <mxPoint x="202" y="80" as="sourcePoint" />
            <mxPoint x="202" as="targetPoint" />
          </mxGeometry>
        </mxCell>
        <mxCell id="qut-PCuaeT9HsMVFIy28-345" value="" style="endArrow=none;html=1;rounded=0;strokeWidth=5;" edge="1" parent="qut-PCuaeT9HsMVFIy28-346">
          <mxGeometry width="50" height="50" relative="1" as="geometry">
            <mxPoint x="321" y="80" as="sourcePoint" />
            <mxPoint x="200.5" y="79" as="targetPoint" />
          </mxGeometry>
        </mxCell>
        <mxCell id="qut-PCuaeT9HsMVFIy28-347" value="" style="group" vertex="1" connectable="0" parent="1">
          <mxGeometry x="1760" y="440" width="321" height="80" as="geometry" />
        </mxCell>
        <mxCell id="qut-PCuaeT9HsMVFIy28-348" value="" style="endArrow=none;html=1;rounded=0;strokeWidth=5;" edge="1" parent="qut-PCuaeT9HsMVFIy28-347">
          <mxGeometry width="50" height="50" relative="1" as="geometry">
            <mxPoint y="80" as="sourcePoint" />
            <mxPoint as="targetPoint" />
          </mxGeometry>
        </mxCell>
        <mxCell id="qut-PCuaeT9HsMVFIy28-349" value="" style="endArrow=none;html=1;rounded=0;strokeWidth=5;" edge="1" parent="qut-PCuaeT9HsMVFIy28-347">
          <mxGeometry width="50" height="50" relative="1" as="geometry">
            <mxPoint x="41" as="sourcePoint" />
            <mxPoint x="1" as="targetPoint" />
          </mxGeometry>
        </mxCell>
        <mxCell id="qut-PCuaeT9HsMVFIy28-350" value="" style="endArrow=none;html=1;rounded=0;strokeWidth=5;" edge="1" parent="qut-PCuaeT9HsMVFIy28-347">
          <mxGeometry width="50" height="50" relative="1" as="geometry">
            <mxPoint x="41" y="80" as="sourcePoint" />
            <mxPoint x="41" as="targetPoint" />
          </mxGeometry>
        </mxCell>
        <mxCell id="qut-PCuaeT9HsMVFIy28-351" value="" style="endArrow=none;html=1;rounded=0;strokeWidth=5;" edge="1" parent="qut-PCuaeT9HsMVFIy28-347">
          <mxGeometry width="50" height="50" relative="1" as="geometry">
            <mxPoint x="161" y="80" as="sourcePoint" />
            <mxPoint x="40.5" y="79" as="targetPoint" />
          </mxGeometry>
        </mxCell>
        <mxCell id="qut-PCuaeT9HsMVFIy28-352" value="" style="endArrow=none;html=1;rounded=0;strokeWidth=5;" edge="1" parent="qut-PCuaeT9HsMVFIy28-347">
          <mxGeometry width="50" height="50" relative="1" as="geometry">
            <mxPoint x="161" y="80" as="sourcePoint" />
            <mxPoint x="161" as="targetPoint" />
          </mxGeometry>
        </mxCell>
        <mxCell id="qut-PCuaeT9HsMVFIy28-353" value="" style="endArrow=none;html=1;rounded=0;strokeWidth=5;" edge="1" parent="qut-PCuaeT9HsMVFIy28-347">
          <mxGeometry width="50" height="50" relative="1" as="geometry">
            <mxPoint x="202" as="sourcePoint" />
            <mxPoint x="162" as="targetPoint" />
          </mxGeometry>
        </mxCell>
        <mxCell id="qut-PCuaeT9HsMVFIy28-354" value="" style="endArrow=none;html=1;rounded=0;strokeWidth=5;" edge="1" parent="qut-PCuaeT9HsMVFIy28-347">
          <mxGeometry width="50" height="50" relative="1" as="geometry">
            <mxPoint x="202" y="80" as="sourcePoint" />
            <mxPoint x="202" as="targetPoint" />
          </mxGeometry>
        </mxCell>
        <mxCell id="qut-PCuaeT9HsMVFIy28-355" value="" style="endArrow=none;html=1;rounded=0;strokeWidth=5;" edge="1" parent="qut-PCuaeT9HsMVFIy28-347">
          <mxGeometry width="50" height="50" relative="1" as="geometry">
            <mxPoint x="321" y="80" as="sourcePoint" />
            <mxPoint x="200.5" y="79" as="targetPoint" />
          </mxGeometry>
        </mxCell>
        <mxCell id="qut-PCuaeT9HsMVFIy28-356" value="" style="group" vertex="1" connectable="0" parent="1">
          <mxGeometry x="1120" y="440" width="321" height="80" as="geometry" />
        </mxCell>
        <mxCell id="qut-PCuaeT9HsMVFIy28-357" value="" style="endArrow=none;html=1;rounded=0;strokeWidth=5;" edge="1" parent="qut-PCuaeT9HsMVFIy28-356">
          <mxGeometry width="50" height="50" relative="1" as="geometry">
            <mxPoint y="80" as="sourcePoint" />
            <mxPoint as="targetPoint" />
          </mxGeometry>
        </mxCell>
        <mxCell id="qut-PCuaeT9HsMVFIy28-358" value="" style="endArrow=none;html=1;rounded=0;strokeWidth=5;" edge="1" parent="qut-PCuaeT9HsMVFIy28-356">
          <mxGeometry width="50" height="50" relative="1" as="geometry">
            <mxPoint x="41" as="sourcePoint" />
            <mxPoint x="1" as="targetPoint" />
          </mxGeometry>
        </mxCell>
        <mxCell id="qut-PCuaeT9HsMVFIy28-359" value="" style="endArrow=none;html=1;rounded=0;strokeWidth=5;" edge="1" parent="qut-PCuaeT9HsMVFIy28-356">
          <mxGeometry width="50" height="50" relative="1" as="geometry">
            <mxPoint x="41" y="80" as="sourcePoint" />
            <mxPoint x="41" as="targetPoint" />
          </mxGeometry>
        </mxCell>
        <mxCell id="qut-PCuaeT9HsMVFIy28-360" value="" style="endArrow=none;html=1;rounded=0;strokeWidth=5;" edge="1" parent="qut-PCuaeT9HsMVFIy28-356">
          <mxGeometry width="50" height="50" relative="1" as="geometry">
            <mxPoint x="161" y="80" as="sourcePoint" />
            <mxPoint x="40.5" y="79" as="targetPoint" />
          </mxGeometry>
        </mxCell>
        <mxCell id="qut-PCuaeT9HsMVFIy28-361" value="" style="endArrow=none;html=1;rounded=0;strokeWidth=5;" edge="1" parent="qut-PCuaeT9HsMVFIy28-356">
          <mxGeometry width="50" height="50" relative="1" as="geometry">
            <mxPoint x="161" y="80" as="sourcePoint" />
            <mxPoint x="161" as="targetPoint" />
          </mxGeometry>
        </mxCell>
        <mxCell id="qut-PCuaeT9HsMVFIy28-362" value="" style="endArrow=none;html=1;rounded=0;strokeWidth=5;" edge="1" parent="qut-PCuaeT9HsMVFIy28-356">
          <mxGeometry width="50" height="50" relative="1" as="geometry">
            <mxPoint x="202" as="sourcePoint" />
            <mxPoint x="162" as="targetPoint" />
          </mxGeometry>
        </mxCell>
        <mxCell id="qut-PCuaeT9HsMVFIy28-363" value="" style="endArrow=none;html=1;rounded=0;strokeWidth=5;" edge="1" parent="qut-PCuaeT9HsMVFIy28-356">
          <mxGeometry width="50" height="50" relative="1" as="geometry">
            <mxPoint x="202" y="80" as="sourcePoint" />
            <mxPoint x="202" as="targetPoint" />
          </mxGeometry>
        </mxCell>
        <mxCell id="qut-PCuaeT9HsMVFIy28-364" value="" style="endArrow=none;html=1;rounded=0;strokeWidth=5;" edge="1" parent="qut-PCuaeT9HsMVFIy28-356">
          <mxGeometry width="50" height="50" relative="1" as="geometry">
            <mxPoint x="321" y="80" as="sourcePoint" />
            <mxPoint x="200.5" y="79" as="targetPoint" />
          </mxGeometry>
        </mxCell>
        <mxCell id="qut-PCuaeT9HsMVFIy28-365" value="&lt;font color=&quot;#ea6b66&quot; style=&quot;font-size: 26px;&quot;&gt;(a)&amp;nbsp; $$m \lt 0.5$$&lt;/font&gt;" style="text;html=1;align=center;verticalAlign=middle;whiteSpace=wrap;rounded=0;" vertex="1" parent="1">
          <mxGeometry x="115" y="610" width="370" height="60" as="geometry" />
        </mxCell>
        <mxCell id="qut-PCuaeT9HsMVFIy28-367" value="&lt;font color=&quot;#ea6b66&quot; style=&quot;font-size: 26px;&quot;&gt;(b)&amp;nbsp; $$m \gt 0.5$$&lt;/font&gt;" style="text;html=1;align=center;verticalAlign=middle;whiteSpace=wrap;rounded=0;" vertex="1" parent="1">
          <mxGeometry x="1470" y="610" width="370" height="60" as="geometry" />
        </mxCell>
        <mxCell id="qut-PCuaeT9HsMVFIy28-379" value="" style="endArrow=blockThin;html=1;rounded=0;endFill=1;strokeWidth=4;" edge="1" parent="1">
          <mxGeometry width="50" height="50" relative="1" as="geometry">
            <mxPoint x="-90" y="920" as="sourcePoint" />
            <mxPoint x="650" y="920" as="targetPoint" />
          </mxGeometry>
        </mxCell>
        <mxCell id="qut-PCuaeT9HsMVFIy28-385" value="" style="endArrow=blockThin;html=1;rounded=0;endFill=1;strokeWidth=4;" edge="1" parent="1">
          <mxGeometry width="50" height="50" relative="1" as="geometry">
            <mxPoint x="240" y="950" as="sourcePoint" />
            <mxPoint x="240" y="700" as="targetPoint" />
          </mxGeometry>
        </mxCell>
        <mxCell id="qut-PCuaeT9HsMVFIy28-368" value="" style="endArrow=none;html=1;rounded=0;strokeWidth=5;fillColor=#0050ef;strokeColor=#FF0000;" edge="1" parent="1">
          <mxGeometry width="50" height="50" relative="1" as="geometry">
            <mxPoint x="440" y="919" as="sourcePoint" />
            <mxPoint x="560" y="799" as="targetPoint" />
          </mxGeometry>
        </mxCell>
        <mxCell id="qut-PCuaeT9HsMVFIy28-369" value="" style="endArrow=none;html=1;rounded=0;strokeWidth=5;fillColor=#0050ef;strokeColor=#FF0000;" edge="1" parent="1">
          <mxGeometry width="50" height="50" relative="1" as="geometry">
            <mxPoint x="360" y="919" as="sourcePoint" />
            <mxPoint x="441" y="919" as="targetPoint" />
          </mxGeometry>
        </mxCell>
        <mxCell id="qut-PCuaeT9HsMVFIy28-370" value="" style="endArrow=none;html=1;rounded=0;strokeWidth=5;fillColor=#0050ef;strokeColor=#FF0000;" edge="1" parent="1">
          <mxGeometry width="50" height="50" relative="1" as="geometry">
            <mxPoint x="360" y="919" as="sourcePoint" />
            <mxPoint x="240" y="799" as="targetPoint" />
          </mxGeometry>
        </mxCell>
        <mxCell id="qut-PCuaeT9HsMVFIy28-376" value="" style="endArrow=none;html=1;rounded=0;strokeWidth=5;fillColor=#0050ef;strokeColor=#FF0000;" edge="1" parent="1">
          <mxGeometry width="50" height="50" relative="1" as="geometry">
            <mxPoint x="240" y="799" as="sourcePoint" />
            <mxPoint x="120" y="919" as="targetPoint" />
          </mxGeometry>
        </mxCell>
        <mxCell id="qut-PCuaeT9HsMVFIy28-377" value="" style="endArrow=none;html=1;rounded=0;strokeWidth=5;fillColor=#0050ef;strokeColor=#FF0000;" edge="1" parent="1">
          <mxGeometry width="50" height="50" relative="1" as="geometry">
            <mxPoint x="39.5" y="919" as="sourcePoint" />
            <mxPoint x="120.5" y="919" as="targetPoint" />
          </mxGeometry>
        </mxCell>
        <mxCell id="qut-PCuaeT9HsMVFIy28-378" value="" style="endArrow=none;html=1;rounded=0;strokeWidth=5;fillColor=#0050ef;strokeColor=#FF0000;" edge="1" parent="1">
          <mxGeometry width="50" height="50" relative="1" as="geometry">
            <mxPoint x="-80" y="799" as="sourcePoint" />
            <mxPoint x="40" y="919" as="targetPoint" />
          </mxGeometry>
        </mxCell>
        <mxCell id="qut-PCuaeT9HsMVFIy28-386" value="&lt;font size=&quot;1&quot; style=&quot;&quot;&gt;&lt;b style=&quot;font-size: 32px;&quot;&gt;$$\tau$$&lt;/b&gt;&lt;/font&gt;" style="text;html=1;align=center;verticalAlign=middle;whiteSpace=wrap;rounded=0;" vertex="1" parent="1">
          <mxGeometry x="608" y="930" width="60" height="30" as="geometry" />
        </mxCell>
        <mxCell id="qut-PCuaeT9HsMVFIy28-387" value="&lt;font style=&quot;font-size: 28px;&quot;&gt;&lt;b&gt;$$\overline{m_t(t)m_t(t-\tau)}$$&lt;/b&gt;&lt;/font&gt;" style="text;html=1;align=center;verticalAlign=middle;whiteSpace=wrap;rounded=0;" vertex="1" parent="1">
          <mxGeometry x="340" y="710" width="60" height="30" as="geometry" />
        </mxCell>
        <mxCell id="qut-PCuaeT9HsMVFIy28-388" value="&lt;font color=&quot;#ff0000&quot; size=&quot;1&quot; style=&quot;&quot;&gt;&lt;b style=&quot;font-size: 32px;&quot;&gt;$$m$$&lt;/b&gt;&lt;/font&gt;" style="text;html=1;align=center;verticalAlign=middle;whiteSpace=wrap;rounded=0;" vertex="1" parent="1">
          <mxGeometry x="115" y="760" width="60" height="30" as="geometry" />
        </mxCell>
        <mxCell id="qut-PCuaeT9HsMVFIy28-389" value="&lt;font color=&quot;#ff0000&quot; size=&quot;1&quot; style=&quot;&quot;&gt;&lt;b style=&quot;font-size: 24px;&quot;&gt;$$mT$$&lt;/b&gt;&lt;/font&gt;" style="text;html=1;align=center;verticalAlign=middle;whiteSpace=wrap;rounded=0;" vertex="1" parent="1">
          <mxGeometry x="320" y="930" width="60" height="30" as="geometry" />
        </mxCell>
        <mxCell id="qut-PCuaeT9HsMVFIy28-390" value="&lt;font color=&quot;#ff0000&quot; size=&quot;1&quot; style=&quot;&quot;&gt;&lt;b style=&quot;font-size: 24px;&quot;&gt;$$(1-m)T$$&lt;/b&gt;&lt;/font&gt;" style="text;html=1;align=center;verticalAlign=middle;whiteSpace=wrap;rounded=0;" vertex="1" parent="1">
          <mxGeometry x="425" y="930" width="60" height="30" as="geometry" />
        </mxCell>
        <mxCell id="qut-PCuaeT9HsMVFIy28-391" value="" style="endArrow=none;html=1;rounded=0;strokeWidth=3;dashed=1;strokeColor=#E6D0DE;" edge="1" parent="1">
          <mxGeometry width="50" height="50" relative="1" as="geometry">
            <mxPoint x="560" y="970" as="sourcePoint" />
            <mxPoint x="560" y="690" as="targetPoint" />
          </mxGeometry>
        </mxCell>
        <mxCell id="qut-PCuaeT9HsMVFIy28-392" value="" style="endArrow=none;html=1;rounded=0;strokeWidth=3;dashed=1;strokeColor=#E6D0DE;" edge="1" parent="1">
          <mxGeometry width="50" height="50" relative="1" as="geometry">
            <mxPoint x="-80" y="980" as="sourcePoint" />
            <mxPoint x="-80" y="700" as="targetPoint" />
          </mxGeometry>
        </mxCell>
        <mxCell id="qut-PCuaeT9HsMVFIy28-393" value="&lt;font color=&quot;#ff0000&quot; size=&quot;1&quot; style=&quot;&quot;&gt;&lt;b style=&quot;font-size: 24px;&quot;&gt;$$T$$&lt;/b&gt;&lt;/font&gt;" style="text;html=1;align=center;verticalAlign=middle;whiteSpace=wrap;rounded=0;" vertex="1" parent="1">
          <mxGeometry x="548" y="930" width="60" height="30" as="geometry" />
        </mxCell>
        <mxCell id="qut-PCuaeT9HsMVFIy28-394" value="&lt;font color=&quot;#ff0000&quot; size=&quot;1&quot; style=&quot;&quot;&gt;&lt;b style=&quot;font-size: 24px;&quot;&gt;$$-T$$&lt;/b&gt;&lt;/font&gt;" style="text;html=1;align=center;verticalAlign=middle;whiteSpace=wrap;rounded=0;" vertex="1" parent="1">
          <mxGeometry x="-140" y="930" width="60" height="30" as="geometry" />
        </mxCell>
        <mxCell id="qut-PCuaeT9HsMVFIy28-395" value="&lt;font color=&quot;#ff0000&quot; size=&quot;1&quot; style=&quot;&quot;&gt;&lt;b style=&quot;font-size: 24px;&quot;&gt;$$0$$&lt;/b&gt;&lt;/font&gt;" style="text;html=1;align=center;verticalAlign=middle;whiteSpace=wrap;rounded=0;" vertex="1" parent="1">
          <mxGeometry x="230" y="930" width="60" height="30" as="geometry" />
        </mxCell>
        <mxCell id="qut-PCuaeT9HsMVFIy28-396" value="" style="endArrow=none;html=1;rounded=0;strokeWidth=3;dashed=1;strokeColor=#E6D0DE;" edge="1" parent="1">
          <mxGeometry width="50" height="50" relative="1" as="geometry">
            <mxPoint x="370" y="800" as="sourcePoint" />
            <mxPoint x="140" y="800" as="targetPoint" />
          </mxGeometry>
        </mxCell>
        <mxCell id="qut-PCuaeT9HsMVFIy28-397" value="" style="endArrow=blockThin;html=1;rounded=0;endFill=1;strokeWidth=4;" edge="1" parent="1">
          <mxGeometry width="50" height="50" relative="1" as="geometry">
            <mxPoint x="1108" y="921" as="sourcePoint" />
            <mxPoint x="1848" y="921" as="targetPoint" />
          </mxGeometry>
        </mxCell>
        <mxCell id="qut-PCuaeT9HsMVFIy28-398" value="" style="endArrow=blockThin;html=1;rounded=0;endFill=1;strokeWidth=4;" edge="1" parent="1">
          <mxGeometry width="50" height="50" relative="1" as="geometry">
            <mxPoint x="1438" y="951" as="sourcePoint" />
            <mxPoint x="1438" y="701" as="targetPoint" />
          </mxGeometry>
        </mxCell>
        <mxCell id="qut-PCuaeT9HsMVFIy28-399" value="" style="endArrow=none;html=1;rounded=0;strokeWidth=5;fillColor=#0050ef;strokeColor=#FF0000;" edge="1" parent="1">
          <mxGeometry width="50" height="50" relative="1" as="geometry">
            <mxPoint x="1638" y="878" as="sourcePoint" />
            <mxPoint x="1758" y="758" as="targetPoint" />
          </mxGeometry>
        </mxCell>
        <mxCell id="qut-PCuaeT9HsMVFIy28-400" value="" style="endArrow=none;html=1;rounded=0;strokeWidth=5;fillColor=#0050ef;strokeColor=#FF0000;" edge="1" parent="1">
          <mxGeometry width="50" height="50" relative="1" as="geometry">
            <mxPoint x="1558" y="878" as="sourcePoint" />
            <mxPoint x="1639" y="878" as="targetPoint" />
          </mxGeometry>
        </mxCell>
        <mxCell id="qut-PCuaeT9HsMVFIy28-401" value="" style="endArrow=none;html=1;rounded=0;strokeWidth=5;fillColor=#0050ef;strokeColor=#FF0000;" edge="1" parent="1">
          <mxGeometry width="50" height="50" relative="1" as="geometry">
            <mxPoint x="1558" y="878" as="sourcePoint" />
            <mxPoint x="1438" y="758" as="targetPoint" />
          </mxGeometry>
        </mxCell>
        <mxCell id="qut-PCuaeT9HsMVFIy28-402" value="" style="endArrow=none;html=1;rounded=0;strokeWidth=5;fillColor=#0050ef;strokeColor=#FF0000;" edge="1" parent="1">
          <mxGeometry width="50" height="50" relative="1" as="geometry">
            <mxPoint x="1438" y="758" as="sourcePoint" />
            <mxPoint x="1318" y="878" as="targetPoint" />
          </mxGeometry>
        </mxCell>
        <mxCell id="qut-PCuaeT9HsMVFIy28-403" value="" style="endArrow=none;html=1;rounded=0;strokeWidth=5;fillColor=#0050ef;strokeColor=#FF0000;" edge="1" parent="1">
          <mxGeometry width="50" height="50" relative="1" as="geometry">
            <mxPoint x="1237.5" y="878" as="sourcePoint" />
            <mxPoint x="1318.5" y="878" as="targetPoint" />
          </mxGeometry>
        </mxCell>
        <mxCell id="qut-PCuaeT9HsMVFIy28-404" value="" style="endArrow=none;html=1;rounded=0;strokeWidth=5;fillColor=#0050ef;strokeColor=#FF0000;" edge="1" parent="1">
          <mxGeometry width="50" height="50" relative="1" as="geometry">
            <mxPoint x="1118" y="758" as="sourcePoint" />
            <mxPoint x="1238" y="878" as="targetPoint" />
          </mxGeometry>
        </mxCell>
        <mxCell id="qut-PCuaeT9HsMVFIy28-405" value="&lt;font size=&quot;1&quot; style=&quot;&quot;&gt;&lt;b style=&quot;font-size: 32px;&quot;&gt;$$\tau$$&lt;/b&gt;&lt;/font&gt;" style="text;html=1;align=center;verticalAlign=middle;whiteSpace=wrap;rounded=0;" vertex="1" parent="1">
          <mxGeometry x="1806" y="931" width="60" height="30" as="geometry" />
        </mxCell>
        <mxCell id="qut-PCuaeT9HsMVFIy28-406" value="&lt;font style=&quot;font-size: 28px;&quot;&gt;&lt;b&gt;$$\overline{m_t(t)m_t(t-\tau)}$$&lt;/b&gt;&lt;/font&gt;" style="text;html=1;align=center;verticalAlign=middle;whiteSpace=wrap;rounded=0;" vertex="1" parent="1">
          <mxGeometry x="1538" y="711" width="60" height="30" as="geometry" />
        </mxCell>
        <mxCell id="qut-PCuaeT9HsMVFIy28-407" value="&lt;font color=&quot;#ff0000&quot; size=&quot;1&quot; style=&quot;&quot;&gt;&lt;b style=&quot;font-size: 32px;&quot;&gt;$$m$$&lt;/b&gt;&lt;/font&gt;" style="text;html=1;align=center;verticalAlign=middle;whiteSpace=wrap;rounded=0;" vertex="1" parent="1">
          <mxGeometry x="1290" y="720" width="60" height="30" as="geometry" />
        </mxCell>
        <mxCell id="qut-PCuaeT9HsMVFIy28-408" value="&lt;font color=&quot;#ff0000&quot; size=&quot;1&quot; style=&quot;&quot;&gt;&lt;b style=&quot;font-size: 24px;&quot;&gt;$$(1-m)T$$&lt;/b&gt;&lt;/font&gt;" style="text;html=1;align=center;verticalAlign=middle;whiteSpace=wrap;rounded=0;" vertex="1" parent="1">
          <mxGeometry x="1518" y="931" width="60" height="30" as="geometry" />
        </mxCell>
        <mxCell id="qut-PCuaeT9HsMVFIy28-409" value="&lt;font color=&quot;#ff0000&quot; size=&quot;1&quot; style=&quot;&quot;&gt;&lt;b style=&quot;font-size: 24px;&quot;&gt;$$mT$$&lt;/b&gt;&lt;/font&gt;" style="text;html=1;align=center;verticalAlign=middle;whiteSpace=wrap;rounded=0;" vertex="1" parent="1">
          <mxGeometry x="1623" y="931" width="60" height="30" as="geometry" />
        </mxCell>
        <mxCell id="qut-PCuaeT9HsMVFIy28-410" value="" style="endArrow=none;html=1;rounded=0;strokeWidth=3;dashed=1;strokeColor=#E6D0DE;" edge="1" parent="1">
          <mxGeometry width="50" height="50" relative="1" as="geometry">
            <mxPoint x="1758" y="971" as="sourcePoint" />
            <mxPoint x="1758" y="691" as="targetPoint" />
          </mxGeometry>
        </mxCell>
        <mxCell id="qut-PCuaeT9HsMVFIy28-411" value="" style="endArrow=none;html=1;rounded=0;strokeWidth=3;dashed=1;strokeColor=#E6D0DE;" edge="1" parent="1">
          <mxGeometry width="50" height="50" relative="1" as="geometry">
            <mxPoint x="1118" y="981" as="sourcePoint" />
            <mxPoint x="1118" y="701" as="targetPoint" />
          </mxGeometry>
        </mxCell>
        <mxCell id="qut-PCuaeT9HsMVFIy28-412" value="&lt;font color=&quot;#ff0000&quot; size=&quot;1&quot; style=&quot;&quot;&gt;&lt;b style=&quot;font-size: 24px;&quot;&gt;$$T$$&lt;/b&gt;&lt;/font&gt;" style="text;html=1;align=center;verticalAlign=middle;whiteSpace=wrap;rounded=0;" vertex="1" parent="1">
          <mxGeometry x="1746" y="931" width="60" height="30" as="geometry" />
        </mxCell>
        <mxCell id="qut-PCuaeT9HsMVFIy28-413" value="&lt;font color=&quot;#ff0000&quot; size=&quot;1&quot; style=&quot;&quot;&gt;&lt;b style=&quot;font-size: 24px;&quot;&gt;$$-T$$&lt;/b&gt;&lt;/font&gt;" style="text;html=1;align=center;verticalAlign=middle;whiteSpace=wrap;rounded=0;" vertex="1" parent="1">
          <mxGeometry x="1058" y="931" width="60" height="30" as="geometry" />
        </mxCell>
        <mxCell id="qut-PCuaeT9HsMVFIy28-414" value="&lt;font color=&quot;#ff0000&quot; size=&quot;1&quot; style=&quot;&quot;&gt;&lt;b style=&quot;font-size: 24px;&quot;&gt;$$0$$&lt;/b&gt;&lt;/font&gt;" style="text;html=1;align=center;verticalAlign=middle;whiteSpace=wrap;rounded=0;" vertex="1" parent="1">
          <mxGeometry x="1428" y="931" width="60" height="30" as="geometry" />
        </mxCell>
        <mxCell id="qut-PCuaeT9HsMVFIy28-415" value="" style="endArrow=none;html=1;rounded=0;strokeWidth=3;dashed=1;strokeColor=#E6D0DE;" edge="1" parent="1">
          <mxGeometry width="50" height="50" relative="1" as="geometry">
            <mxPoint x="1568" y="759" as="sourcePoint" />
            <mxPoint x="1338" y="759" as="targetPoint" />
          </mxGeometry>
        </mxCell>
        <mxCell id="qut-PCuaeT9HsMVFIy28-416" value="" style="endArrow=none;html=1;rounded=0;strokeWidth=3;dashed=1;strokeColor=#E6D0DE;" edge="1" parent="1">
          <mxGeometry width="50" height="50" relative="1" as="geometry">
            <mxPoint x="760" y="900" as="sourcePoint" />
            <mxPoint x="760" y="800" as="targetPoint" />
          </mxGeometry>
        </mxCell>
        <mxCell id="qut-PCuaeT9HsMVFIy28-424" value="&lt;font color=&quot;#ff0000&quot; size=&quot;1&quot; style=&quot;&quot;&gt;&lt;b style=&quot;font-size: 32px;&quot;&gt;$$2m-1$$&lt;/b&gt;&lt;/font&gt;" style="text;html=1;align=center;verticalAlign=middle;whiteSpace=wrap;rounded=0;" vertex="1" parent="1">
          <mxGeometry x="1340" y="880" width="60" height="30" as="geometry" />
        </mxCell>
        <mxCell id="qut-PCuaeT9HsMVFIy28-425" value="" style="endArrow=none;html=1;rounded=0;strokeWidth=3;dashed=1;strokeColor=#E6D0DE;" edge="1" parent="1">
          <mxGeometry width="50" height="50" relative="1" as="geometry">
            <mxPoint x="1555" y="880" as="sourcePoint" />
            <mxPoint x="1325" y="880" as="targetPoint" />
          </mxGeometry>
        </mxCell>
      </root>
    </mxGraphModel>
  </diagram>
</mxfile>
